<?xml version="1.0" encoding="utf-8"?>
<!-- Generator: Adobe Illustrator 25.0.1, SVG Export Plug-In . SVG Version: 6.00 Build 0)  -->
<svg version="1.1" id="Layer_1" xmlns="http://www.w3.org/2000/svg" xmlns:xlink="http://www.w3.org/1999/xlink" x="0px" y="0px"
	 viewBox="0 0 32 32" style="enable-background:new 0 0 32 32;" xml:space="preserve">
<style type="text/css">
	.st0{fill:#222222;}
</style>
<g>
	<path class="st0" d="M19.53,12.97h2.02c0,0,0,0,0.01,0c0.28,0,0.5-0.23,0.49-0.5l-0.01,0v-2.02c0,0,0,0,0-0.01
		c0-0.28-0.22-0.5-0.5-0.5h-2.02c0,0,0,0-0.01,0c-0.28,0-0.5,0.23-0.49,0.51v2.02c0,0,0,0,0,0.01
		C19.03,12.75,19.26,12.97,19.53,12.97z"/>
	<path class="st0" d="M16,0C7.16,0,0,7.16,0,16s7.16,16,16,16s16-7.16,16-16S24.84,0,16,0z M24.08,22.06c0,0.02,0,0.04,0,0.06
		c-0.02,1.1-0.92,1.97-2.02,1.96H9.94c-0.02,0-0.04,0-0.06,0c-1.1-0.02-1.97-0.92-1.96-2.02V9.95c0-0.02,0-0.04,0-0.06
		c0.02-1.1,0.92-1.97,2.02-1.96h12.11c0.02,0,0.04,0,0.07,0c1.1,0.02,1.97,0.92,1.95,2.02V22.06z"/>
	<path class="st0" d="M15.82,19.11c1.74,0.05,3.19-1.31,3.24-3.04s-1.31-3.19-3.04-3.24v0c-1.76-0.03-3.21,1.38-3.24,3.14
		C12.77,17.67,14.12,19.06,15.82,19.11z"/>
	<path class="st0" d="M21.04,16.15c-0.08,2.65-2.21,4.78-4.86,4.86c-2.77,0.09-5.09-2.09-5.18-4.86c0-0.47,0.07-0.94,0.21-1.39
		l-1.26-0.27v7.06c0,0.35,0.15,0.5,0.5,0.5h11.1c0.35,0,0.5-0.15,0.5-0.5l0.01,0v-7.07l-1.23,0.27
		C20.97,15.21,21.04,15.68,21.04,16.15z"/>
</g>
</svg>
